<!-- This is a placeholder for the 64x64 PWA icon -->
<!-- Replace this with actual PNG icons generated from your logo -->
<svg width="64" height="64" viewBox="0 0 64 64" fill="none" xmlns="http://www.w3.org/2000/svg">
  <rect width="64" height="64" rx="12" fill="#10B981"/>
  <path d="M32 16C24.268 16 18 22.268 18 30C18 37.732 24.268 44 32 44C39.732 44 46 37.732 46 30C46 22.268 39.732 16 32 16ZM32 40C26.477 40 22 35.523 22 30C22 24.477 26.477 20 32 20C37.523 20 42 24.477 42 30C42 35.523 37.523 40 32 40Z" fill="white"/>
  <path d="M32 24C28.686 24 26 26.686 26 30C26 33.314 28.686 36 32 36C35.314 36 38 33.314 38 30C38 26.686 35.314 24 32 24Z" fill="white"/>
  <path d="M32 48L28 52H36L32 48Z" fill="#065F46"/>
  <path d="M32 48C32 50.2091 30.2091 52 28 52H36C33.7909 52 32 50.2091 32 48Z" fill="#047857"/>
</svg>
